<svg class="thumb" width="1000" height="1000" viewBox="0,0,600,600" xmlns="http://www.w3.org/2000/svg" xmlns:inkscape="http://www.inkscape.org/namespaces/inkscape" xmlns:sodipodi="http://sodipodi.sourceforge.net/DTD/sodipodi-0.dtd" xmlns:xlink="http://www.w3.org/1999/xlink" xmlns:ns1="http://www.inkscape.org/namespaces/inkscape" xmlns:sketch="http://www.bohemiancoding.com/sketch/ns">
  <defs></defs>
  <g transform="matrix(1.295,0,0,1.295,-30.411,149.3023)">
    <g transform="matrix(1.5136,0,0,1.5136,273.2138,43.3752)">
      <svg width="42.861999999999995" height="55.68000000000001" viewBox="62.138000000000005,24,42.861999999999995,55.68000000000001">
        <defs>
          <linearGradient x1="0" y1="0.5" x2="1" y2="0.5" id="linearGradientSk4cwfz5d4">
            <stop offset="0%" stop-color="#ec4c4c"></stop>
            <stop offset="100%" stop-color="#ec4c4c"></stop>
          </linearGradient>
        </defs>
        <g></g>
        <g></g>
        <g></g>
        <g></g>
        <g>
          <path d="M93.557,74.68C97.657,67.426,100,59.1,100,50.171C100,42.581,98.306,35,95.28,29H67.138L93.557,74.68z" fill="url('#linearGradientSk4cwfz5d4')" stroke="none" style=""></path>
        </g>
      </svg>
    </g>
    <g transform="matrix(1.5136,0,0,1.5136,171.457,38.6184)">
      <svg width="43.177" height="56.446" viewBox="-5,20.554,43.177,56.446">
        <defs>
          <linearGradient x1="0" y1="0.5" x2="1" y2="0.5" id="linearGradientSk4cwfz5da">
            <stop offset="0%" stop-color="#0ca0dc" stop-opacity="0.98"></stop>
            <stop offset="100%" stop-color="#0ca0dc" stop-opacity="0.98"></stop>
          </linearGradient>
        </defs>
        <g></g>
        <g></g>
        <g></g>
        <g></g>
        <g>
          <path d="M6.431,25.554C2.338,32.804,0,41.222,0,50.142C0,57.962,1.797,65,4.998,72h28.179L6.431,25.554z" fill="url('#linearGradientSk4cwfz5da')" stroke="none" style=""></path>
        </g>
      </svg>
    </g>
    <g transform="matrix(1.5136,0,0,1.5136,232.3207,0.2683)">
      <svg width="63.14000000000001" height="34.701" viewBox="35.106,-4.7010000000000005,63.14000000000001,34.701">
        <defs>
          <linearGradient x1="0" y1="0.5" x2="1" y2="0.5" id="linearGradientSk4cwfz5dg">
            <stop offset="0%" stop-color="#f2af58"></stop>
            <stop offset="100%" stop-color="#f2af58"></stop>
          </linearGradient>
        </defs>
        <g></g>
        <g></g>
        <g></g>
        <g></g>
        <g>
          <path d="M40.106,25h53.14c-7.97-14-22.26-23.262-38.877-24.701L40.106,25z" fill="url('#linearGradientSk4cwfz5dg')" stroke="none" style=""></path>
        </g>
      </svg>
    </g>
    <g transform="matrix(1.5136,0,0,1.5136,185.4024,0.6184)">
      <svg width="51.01" height="56.312" viewBox="3.8529999999999998,-4.994,51.01,56.312">
        <defs>
          <linearGradient x1="0" y1="0.5" x2="1" y2="0.5" id="linearGradientSk4cwfz5dm">
            <stop offset="0%" stop-color="#74d14c"></stop>
            <stop offset="100%" stop-color="#74d14c"></stop>
          </linearGradient>
        </defs>
        <g></g>
        <g></g>
        <g></g>
        <g></g>
        <g>
          <path d="M23.125,46.318L49.863,0.006C32.858,0.052,17.851,8.588,8.853,21.598L23.125,46.318z" fill="url('#linearGradientSk4cwfz5dm')" stroke="none" style=""></path>
        </g>
      </svg>
    </g>
    <g transform="matrix(1.5136,0,0,1.5136,248.1592,82.3752)">
      <svg width="50.306" height="55.678" viewBox="45.816,49.316,50.306,55.678">
        <defs>
          <linearGradient x1="0" y1="0.5" x2="1" y2="0.5" id="linearGradientSk4cwfz5ds">
            <stop offset="0%" stop-color="#d65ab1"></stop>
            <stop offset="100%" stop-color="#d65ab1"></stop>
          </linearGradient>
        </defs>
        <g></g>
        <g></g>
        <g></g>
        <g></g>
        <g>
          <path d="M77.189,54.316L50.816,99.994c16.709-0.268,31.424-8.729,40.306-21.544L77.189,54.316z" fill="url('#linearGradientSk4cwfz5ds')" stroke="none" style=""></path>
        </g>
      </svg>
    </g>
    <g transform="matrix(1.5136,0,0,1.5136,182.3207,115.2683)">
      <svg width="63.108000000000004" height="34.168000000000006" viewBox="2.101,71,63.108000000000004,34.168000000000006">
        <defs>
          <linearGradient x1="0" y1="0.5" x2="1" y2="0.5" id="linearGradientSk4cwfz5dy">
            <stop offset="0%" stop-color="#a55fc1"></stop>
            <stop offset="100%" stop-color="#a55fc1"></stop>
          </linearGradient>
        </defs>
        <g></g>
        <g></g>
        <g></g>
        <g></g>
        <g>
          <path d="M60.209,76H7.101c8.136,13,22.514,22.937,39.16,24.168L60.209,76z" fill="url('#linearGradientSk4cwfz5dy')" stroke="none" style=""></path>
        </g>
      </svg>
    </g>
    <g transform="matrix(0.477,0,0,0.477,45.0282,166.3764)">
      <svg width="884.8000000000002" height="192" style="overflow: visible;">
        <defs>
          <linearGradient x1="0" y1="0.5" x2="1" y2="0.5" id="linearGradientSk4cwfz5d16">
            <stop offset="0%" stop-color="#3a3a3a"></stop>
            <stop offset="100%" stop-color="#3a3a3a"></stop>
          </linearGradient>
        </defs>
        <g transform="matrix(1,0,0,1,0,99)">
          <path d="M 22.3 0L 3.4-73.6L 11.6-73.6L 27.4-10.9L 45.6-73.6L 53.6-73.6L 71.7-10.9L 87.5-73.6L 95.7-73.6L 76.8 0L 68.2 0L 49.6-62.5L 30.9 0L 22.3 0ZM 123.10000000000002 0.6Q 114.50000000000003 0.6  109.75000000000003-1.9Q 105.00000000000003-4.4  102.90000000000002-10.3Q 100.80000000000003-16.2  100.80000000000003-26.8L 100.80000000000003-26.8Q 100.80000000000003-37.5  102.95000000000002-43.4Q 105.10000000000002-49.3  109.90000000000002-51.7Q 114.70000000000002-54.1  123.20000000000002-54.1L 123.20000000000002-54.1Q 130.50000000000003-54.1  134.90000000000003-52.5Q 139.3-50.9  141.40000000000003-47.05Q 143.50000000000003-43.2  143.50000000000003-36.4L 143.50000000000003-36.4Q 143.50000000000003-29.6  139.55-26.55Q 135.60000000000002-23.5  128.3-23.5L 128.3-23.5L 108.70000000000002-23.5Q 108.80000000000003-16.6  110.10000000000002-12.85Q 111.40000000000002-9.1  114.90000000000002-7.35Q 118.40000000000002-5.6  125.00000000000003-5.6L 125.00000000000003-5.6L 142.20000000000002-5.6L 142.20000000000002-0.8Q 136.8-0.1  132.60000000000002 0.25Q 128.40000000000003 0.6  123.10000000000002 0.6L 123.10000000000002 0.6ZM 108.60000000000002-28.7L 127.60000000000002-28.7Q 132.20000000000002-28.7  134.3-30.4Q 136.40000000000003-32.1  136.40000000000003-36.3L 136.40000000000003-36.3Q 136.40000000000003-43  133.45000000000002-45.55Q 130.50000000000003-48.1  123.20000000000002-48.1L 123.20000000000002-48.1Q 117.40000000000002-48.1  114.30000000000003-46.4Q 111.20000000000002-44.7  109.90000000000002-40.6Q 108.60000000000002-36.5  108.60000000000002-28.7L 108.60000000000002-28.7ZM 182.50000000000006 0.6Q 173.30000000000004 0.6  164.70000000000005-5.4L 164.70000000000005-5.4L 163.20000000000005 0L 156.80000000000004 0L 156.80000000000004-76.3L 164.70000000000005-76.3L 164.70000000000005-48.5Q 168.90000000000003-50.9  173.65000000000003-52.5Q 178.40000000000003-54.1  182.20000000000005-54.1L 182.20000000000005-54.1Q 192.00000000000006-54.1  196.65000000000003-47.7Q 201.30000000000004-41.3  201.30000000000004-26.3L 201.30000000000004-26.3Q 201.30000000000004 0.6  182.50000000000006 0.6L 182.50000000000006 0.6ZM 180.00000000000006-6Q 186.60000000000005-6  190.00000000000006-11.15Q 193.40000000000003-16.3  193.40000000000003-26.6L 193.40000000000003-26.6Q 193.40000000000003-35  191.75000000000006-39.55Q 190.10000000000005-44.1  187.20000000000005-45.8Q 184.30000000000004-47.5  180.00000000000006-47.5L 180.00000000000006-47.5Q 175.80000000000004-47.5  172.30000000000004-46.4Q 168.80000000000004-45.3  164.70000000000005-43L 164.70000000000005-43L 164.70000000000005-10.3Q 168.40000000000003-8.3  172.05000000000004-7.15Q 175.70000000000005-6  180.00000000000006-6L 180.00000000000006-6ZM 262.6 0.6Q 257.90000000000003 0.6  250.95000000000002 0.05Q 244.00000000000003-0.5  240.30000000000004-1.2L 240.30000000000004-1.2L 240.30000000000004-7.3Q 248.10000000000002-6.5  262.3-6.5L 262.3-6.5Q 269.90000000000003-6.5  274.1-8.9Q 278.3-11.3  278.3-17.6L 278.3-17.6L 278.3-22.6Q 278.3-33  267.3-33L 267.3-33L 259.40000000000003-33Q 249.90000000000003-33  244.95000000000002-37.15Q 240.00000000000003-41.3  240.00000000000003-50.8L 240.00000000000003-50.8L 240.00000000000003-55Q 240.00000000000003-65.1  245.40000000000003-69.65Q 250.80000000000004-74.2  261.40000000000003-74.2L 261.40000000000003-74.2Q 265.90000000000003-74.2  272.25-73.55Q 278.6-72.9  282.6-72.1L 282.6-72.1L 282.6-66.1Q 269.1-67  262.20000000000005-67L 262.20000000000005-67Q 254.80000000000004-67  251.20000000000002-64.35Q 247.60000000000002-61.7  247.60000000000002-54.7L 247.60000000000002-54.7L 247.60000000000002-51.3Q 247.60000000000002-45.5  250.65000000000003-43.05Q 253.70000000000002-40.6  259.70000000000005-40.6L 259.70000000000005-40.6L 268.20000000000005-40.6Q 276.90000000000003-40.6  281.40000000000003-35.95Q 285.90000000000003-31.3  285.90000000000003-23.5L 285.90000000000003-23.5L 285.90000000000003-17.8Q 285.90000000000003-7.5  279.65000000000003-3.45Q 273.40000000000003 0.6  262.6 0.6L 262.6 0.6ZM 315.30000000000007 0.6Q 299.30000000000007 0.6  299.30000000000007-15.8L 299.30000000000007-15.8L 299.30000000000007-53.4L 307.20000000000005-53.4L 307.20000000000005-17.8Q 307.20000000000005-11.4  310.05000000000007-8.9Q 312.9000000000001-6.4  318.80000000000007-6.4L 318.80000000000007-6.4Q 323.30000000000007-6.4  327.20000000000005-7.65Q 331.1000000000001-8.9  335.4000000000001-11.5L 335.4000000000001-11.5L 335.4000000000001-53.4L 343.30000000000007-53.4L 343.30000000000007 0L 337.1000000000001 0L 335.4000000000001-5.9Q 325.20000000000005 0.6  315.30000000000007 0.6L 315.30000000000007 0.6ZM 358.2000000000001 23.7L 358.2000000000001-53.4L 364.6000000000001-53.4L 366.1000000000001-47.9Q 369.30000000000007-50.2  374.2000000000001-52.15Q 379.1000000000001-54.1  383.6000000000001-54.1L 383.6000000000001-54.1Q 393.4000000000001-54.1  398.05000000000007-46.4Q 402.7000000000001-38.7  402.7000000000001-26.8L 402.7000000000001-26.8Q 402.7000000000001-13.1  398.05000000000007-6.2Q 393.4000000000001 0.7  383.6000000000001 0.7L 383.6000000000001 0.7Q 379.30000000000007 0.7  374.75000000000006-0.7Q 370.2000000000001-2.1  366.1000000000001-4.4L 366.1000000000001-4.4L 366.1000000000001 23.7L 358.2000000000001 23.7ZM 381.4000000000001-6Q 394.80000000000007-6  394.80000000000007-26.8L 394.80000000000007-26.8Q 394.80000000000007-37.3  391.00000000000006-42.4Q 387.2000000000001-47.5  381.4000000000001-47.5L 381.4000000000001-47.5Q 377.2000000000001-47.5  373.50000000000006-46.25Q 369.80000000000007-45  366.1000000000001-43L 366.1000000000001-43L 366.1000000000001-10.3Q 373.7000000000001-6  381.4000000000001-6L 381.4000000000001-6ZM 416.00000000000006 23.7L 416.00000000000006-53.4L 422.40000000000003-53.4L 423.90000000000003-47.9Q 427.1-50.2  432.00000000000006-52.15Q 436.90000000000003-54.1  441.40000000000003-54.1L 441.40000000000003-54.1Q 451.20000000000005-54.1  455.85-46.4Q 460.50000000000006-38.7  460.50000000000006-26.8L 460.50000000000006-26.8Q 460.50000000000006-13.1  455.85-6.2Q 451.20000000000005 0.7  441.40000000000003 0.7L 441.40000000000003 0.7Q 437.1 0.7  432.55-0.7Q 428.00000000000006-2.1  423.90000000000003-4.4L 423.90000000000003-4.4L 423.90000000000003 23.7L 416.00000000000006 23.7ZM 439.20000000000005-6Q 452.6-6  452.6-26.8L 452.6-26.8Q 452.6-37.3  448.8-42.4Q 445.00000000000006-47.5  439.20000000000005-47.5L 439.20000000000005-47.5Q 435.00000000000006-47.5  431.3-46.25Q 427.6-45  423.90000000000003-43L 423.90000000000003-43L 423.90000000000003-10.3Q 431.50000000000006-6  439.20000000000005-6L 439.20000000000005-6ZM 495 0.6Q 486.8 0.6  481.8-1.7Q 476.8-4  474.34999999999997-9.95Q 471.9-15.9  471.9-26.8L 471.9-26.8Q 471.9-37.8  474.4-43.75Q 476.9-49.7  481.8-51.9Q 486.7-54.1  495-54.1L 495-54.1Q 503.2-54.1  508.2-51.85Q 513.2-49.6  515.7-43.65Q 518.2-37.7  518.2-26.8L 518.2-26.8Q 518.2-15.9  515.7-9.95Q 513.2-4  508.25-1.7Q 503.3 0.6  495 0.6L 495 0.6ZM 495-5.9Q 500.5-5.9  503.65-7.35Q 506.8-8.8  508.5-13.3Q 510.2-17.8  510.2-26.8L 510.2-26.8Q 510.2-35.8  508.55-40.25Q 506.9-44.7  503.7-46.15Q 500.5-47.6  495-47.6L 495-47.6Q 489.4-47.6  486.25-46.15Q 483.09999999999997-44.7  481.45-40.25Q 479.8-35.8  479.8-26.8L 479.8-26.8Q 479.8-17.8  481.45-13.3Q 483.09999999999997-8.8  486.25-7.35Q 489.4-5.9  495-5.9L 495-5.9ZM 531.5 0L 531.5-53.4L 537.5-53.4L 539.4-44.1Q 543.3-48.8  547.8-51.4Q 552.3-54  557.6999999999999-54L 557.6999999999999-54Q 560.4-54  562.6999999999999-53.5L 562.6999999999999-53.5L 562.6999999999999-45.4Q 558.1999999999999-45.9  556.9-45.9L 556.9-45.9Q 551.6-45.9  547.75-44Q 543.9-42.1  539.4-37.9L 539.4-37.9L 539.4 0L 531.5 0ZM 591.4 0Q 583.5 0  579.8000000000001-4.05Q 576.1-8.1  576.3000000000001-17.3L 576.3000000000001-17.3L 576.6-46.9L 568.1-46.9L 568.1-52L 576.7-53.4L 578-68.3L 584.1-68.3L 584.1-53.4L 599.5-53.4L 599.5-46.9L 584.1-46.9L 584.1-17.3Q 584.1-11.2  586.4-8.95Q 588.7-6.7  592.2-6.4L 592.2-6.4L 598.7-5.8L 598.7 0L 591.4 0ZM 654.2000000000002 0L 654.2000000000002-66.4L 631.4000000000002-66.4L 631.4000000000002-73.6L 684.8000000000002-73.6L 684.8000000000002-66.4L 662.1000000000001-66.4L 662.1000000000001 0L 654.2000000000002 0ZM 709.4000000000002 0.6Q 700.8000000000002 0.6  696.0500000000002-1.9Q 691.3000000000002-4.4  689.2000000000002-10.3Q 687.1000000000003-16.2  687.1000000000003-26.8L 687.1000000000003-26.8Q 687.1000000000003-37.5  689.2500000000002-43.4Q 691.4000000000002-49.3  696.2000000000002-51.7Q 701.0000000000002-54.1  709.5000000000002-54.1L 709.5000000000002-54.1Q 716.8000000000002-54.1  721.2000000000002-52.5Q 725.6000000000003-50.9  727.7000000000002-47.05Q 729.8000000000002-43.2  729.8000000000002-36.4L 729.8000000000002-36.4Q 729.8000000000002-29.6  725.8500000000003-26.55Q 721.9000000000002-23.5  714.6000000000003-23.5L 714.6000000000003-23.5L 695.0000000000002-23.5Q 695.1000000000003-16.6  696.4000000000002-12.85Q 697.7000000000002-9.1  701.2000000000002-7.35Q 704.7000000000002-5.6  711.3000000000002-5.6L 711.3000000000002-5.6L 728.5000000000002-5.6L 728.5000000000002-0.8Q 723.1000000000003-0.1  718.9000000000002 0.25Q 714.7000000000002 0.6  709.4000000000002 0.6L 709.4000000000002 0.6ZM 694.9000000000002-28.7L 713.9000000000002-28.7Q 718.5000000000002-28.7  720.6000000000003-30.4Q 722.7000000000002-32.1  722.7000000000002-36.3L 722.7000000000002-36.3Q 722.7000000000002-43  719.7500000000002-45.55Q 716.8000000000002-48.1  709.5000000000002-48.1L 709.5000000000002-48.1Q 703.7000000000002-48.1  700.6000000000003-46.4Q 697.5000000000002-44.7  696.2000000000002-40.6Q 694.9000000000002-36.5  694.9000000000002-28.7L 694.9000000000002-28.7ZM 753.5000000000002 0.6Q 747.5000000000002 0.6  743.7500000000002-3Q 740.0000000000002-6.6  740.0000000000002-12.8L 740.0000000000002-12.8L 740.0000000000002-16.6Q 740.0000000000002-23.1  744.2500000000002-26.9Q 748.5000000000002-30.7  756.7000000000003-30.7L 756.7000000000003-30.7L 774.8000000000002-30.7L 774.8000000000002-37.3Q 774.8000000000002-42.7  771.8500000000003-45.3Q 768.9000000000002-47.9  761.0000000000002-47.9L 761.0000000000002-47.9L 744.4000000000002-47.9L 744.4000000000002-52.6Q 753.8000000000002-54.2  763.9000000000002-54.2L 763.9000000000002-54.2Q 773.6000000000003-54.2  778.1500000000002-50.25Q 782.7000000000003-46.3  782.7000000000003-37.7L 782.7000000000003-37.7L 782.7000000000003 0L 776.6000000000003 0L 775.1000000000003-6.1Q 774.4000000000002-5.5  770.7500000000002-3.8Q 767.1000000000003-2.1  762.4000000000002-0.75Q 757.7000000000003 0.6  753.5000000000002 0.6L 753.5000000000002 0.6ZM 757.0000000000002-5.3Q 759.7000000000003-5.3  763.6000000000003-6.3Q 767.5000000000002-7.3  770.6500000000002-8.4Q 773.8000000000002-9.5  774.8000000000002-9.9L 774.8000000000002-9.9L 774.8000000000002-26.7L 758.5000000000002-26Q 753.0000000000002-25.8  750.4500000000003-23.3Q 747.9000000000002-20.8  747.9000000000002-16.5L 747.9000000000002-16.5L 747.9000000000002-14.1Q 747.9000000000002-9.5  750.5500000000002-7.4Q 753.2000000000003-5.3  757.0000000000002-5.3L 757.0000000000002-5.3ZM 797.6000000000004 0L 797.6000000000004-53.4L 803.8000000000003-53.4L 805.5000000000003-47.5Q 815.5000000000003-54.3  825.5000000000003-54.3L 825.5000000000003-54.3Q 830.3000000000003-54.3  833.8500000000004-52.15Q 837.4000000000003-50  839.4000000000003-46.4L 839.4000000000003-46.4Q 843.6000000000004-49.5  849.6500000000003-51.9Q 855.7000000000004-54.3  860.9000000000003-54.3L 860.9000000000003-54.3Q 869.2000000000004-54.3  873.4000000000003-49.2Q 877.6000000000004-44.1  877.6000000000004-36L 877.6000000000004-36L 877.6000000000004 0L 869.7000000000004 0L 869.7000000000004-35.4Q 869.7000000000004-40.6  866.6500000000003-43.85Q 863.6000000000004-47.1  858.4000000000003-47.1L 858.4000000000003-47.1Q 854.1000000000004-47.1  849.4500000000004-45.5Q 844.8000000000003-43.9  840.5000000000003-41.3L 840.5000000000003-41.3Q 841.5000000000003-38.1  841.5000000000003-35.3L 841.5000000000003-35.3L 841.5000000000003 0L 833.6000000000004 0L 833.6000000000004-35.4Q 833.6000000000004-40.6  830.6500000000003-43.85Q 827.7000000000004-47.1  822.5000000000003-47.1L 822.5000000000003-47.1Q 817.7000000000004-47.1  813.9500000000004-45.85Q 810.2000000000004-44.6  805.5000000000003-41.9L 805.5000000000003-41.9L 805.5000000000003 0L 797.6000000000004 0Z" data-textpath="Web Support Team" data-text-anchor="middle" data-font-size="100" data-letterspacing="0" data-side="left" data-offset="0.5" data-dx="0" data-dy="0" data-xmlspace="preserve" data-href="" data-font="Exo" data-font-src="/Content/clientfonts/exo.woff" data-font-scale="contain" transform="translate(0,0)" data-x="0" data-y="0" fill="url('#linearGradientSk4cwfz5d16')"></path>
        </g>
      </svg>
    </g>
  </g>
</svg>